<svg width="1440" height="373" viewBox="0 0 1440 373" fill="none" xmlns="http://www.w3.org/2000/svg">
<rect width="1440" height="373" fill="url(#paint0_linear)"/>
<mask id="mask0" mask-type="alpha" maskUnits="userSpaceOnUse" x="0" y="0" width="1440" height="373">
<rect width="1440" height="373" fill="url(#paint1_linear)"/>
</mask>
<g mask="url(#mask0)">
<g style="mix-blend-mode:overlay" opacity="0.1">
<circle cx="1246" cy="200" r="572" fill="white"/>
</g>
<g style="mix-blend-mode:overlay" opacity="0.1">
<circle cx="921" cy="200" r="572" fill="white"/>
</g>
<g style="mix-blend-mode:overlay" opacity="0.3">
<path d="M23.4818 425H20.4818V428H23.4818V425ZM60.4178 425V428H63.4178V425H60.4178ZM60.4178 333.848L63.2274 332.796L57.4178 333.848H60.4178ZM94.5459 425L91.7363 426.052L92.4657 428H94.5459V425ZM124.354 425V428H126.437L127.165 426.048L124.354 425ZM158.266 334.064H161.266L155.455 333.016L158.266 334.064ZM158.266 425H155.266V428H158.266V425ZM195.202 425V428H198.202V425H195.202ZM195.202 273.368H198.202V270.368H195.202V273.368ZM151.786 273.368V270.368H149.757L149.002 272.251L151.786 273.368ZM109.666 378.344L106.886 379.471L109.68 386.365L112.45 379.461L109.666 378.344ZM67.1138 273.368L69.8941 272.241L69.1349 270.368H67.1138V273.368ZM23.4818 273.368V270.368H20.4818V273.368H23.4818ZM23.4818 428H60.4178V422H23.4818V428ZM63.4178 425V333.848H57.4178V425H63.4178ZM57.6083 334.9L91.7363 426.052L97.3554 423.948L63.2274 332.796L57.6083 334.9ZM94.5459 428H124.354V422H94.5459V428ZM127.165 426.048L161.077 335.112L155.455 333.016L121.543 423.952L127.165 426.048ZM155.266 334.064V425H161.266V334.064H155.266ZM158.266 428H195.202V422H158.266V428ZM198.202 425V273.368H192.202V425H198.202ZM195.202 270.368H151.786V276.368H195.202V270.368ZM149.002 272.251L106.882 377.227L112.45 379.461L154.57 274.485L149.002 272.251ZM112.446 377.217L69.8941 272.241L64.3336 274.495L106.886 379.471L112.446 377.217ZM67.1138 270.368H23.4818V276.368H67.1138V270.368ZM20.4818 273.368V425H26.4818V273.368H20.4818ZM304.707 407.936H307.707V397.583L302.172 406.332L304.707 407.936ZM304.707 425H301.707V428H304.707V425ZM341.643 425V428H344.643V425H341.643ZM341.643 304.472H344.643V301.472H341.643V304.472ZM304.707 304.472V301.472H301.707V304.472H304.707ZM304.707 321.536L302.149 323.102L307.707 332.181V321.536H304.707ZM211.419 364.52C211.419 403.838 235.972 429.728 267.339 429.728V423.728C239.954 423.728 217.419 401.234 217.419 364.52H211.419ZM267.339 429.728C286.253 429.728 299.974 421.028 307.242 409.54L302.172 406.332C296.048 416.012 284.281 423.728 267.339 423.728V429.728ZM301.707 407.936V425H307.707V407.936H301.707ZM304.707 428H341.643V422H304.707V428ZM344.643 425V304.472H338.643V425H344.643ZM341.643 301.472H304.707V307.472H341.643V301.472ZM301.707 304.472V321.536H307.707V304.472H301.707ZM307.266 319.97C300.206 308.438 286.459 299.744 267.555 299.744V305.744C284.507 305.744 296.249 313.466 302.149 323.102L307.266 319.97ZM267.555 299.744C236.006 299.744 211.419 325.164 211.419 364.52H217.419C217.419 327.844 239.92 305.744 267.555 305.744V299.744ZM301.707 364.736C301.707 373.69 298.853 380.362 294.629 384.775C290.397 389.196 284.609 391.544 278.355 391.544V397.544C286.141 397.544 293.529 394.6 298.963 388.923C304.405 383.238 307.707 375.006 307.707 364.736H301.707ZM278.355 391.544C266.324 391.544 255.003 382.227 255.003 364.52H249.003C249.003 385.261 262.738 397.544 278.355 397.544V391.544ZM255.003 364.52C255.003 355.582 257.901 348.969 262.145 344.607C266.404 340.23 272.199 337.928 278.355 337.928V331.928C270.687 331.928 263.306 334.81 257.845 340.423C252.369 346.051 249.003 354.234 249.003 364.52H255.003ZM278.355 337.928C284.609 337.928 290.397 340.276 294.629 344.697C298.853 349.11 301.707 355.782 301.707 364.736H307.707C307.707 354.466 304.405 346.234 298.963 340.549C293.529 334.872 286.141 331.928 278.355 331.928V337.928ZM368.365 425H365.365V428H368.365V425ZM405.301 425V428H408.301V425H405.301ZM405.301 304.472H408.301V301.472H405.301V304.472ZM368.365 304.472V301.472H365.365V304.472H368.365ZM368.365 428H405.301V422H368.365V428ZM408.301 425V304.472H402.301V425H408.301ZM405.301 301.472H368.365V307.472H405.301V301.472ZM365.365 304.472V425H371.365V304.472H365.365ZM386.941 294.944C401.369 294.944 411.757 284.927 411.757 272.072H405.757C405.757 281.249 398.432 288.944 386.941 288.944V294.944ZM411.757 272.072C411.757 259.022 401.391 248.984 386.941 248.984V254.984C398.41 254.984 405.757 262.658 405.757 272.072H411.757ZM386.941 248.984C372.294 248.984 361.909 259.002 361.909 272.072H367.909C367.909 262.678 375.235 254.984 386.941 254.984V248.984ZM361.909 272.072C361.909 284.946 372.316 294.944 386.941 294.944V288.944C375.213 288.944 367.909 281.23 367.909 272.072H361.909ZM529.916 390.008H532.916V389.986L532.915 389.965L529.916 390.008ZM495.14 343.784L492.165 344.175L492.509 346.784H495.14V343.784ZM529.268 343.784V346.784H532.583L532.253 343.485L529.268 343.784ZM462.092 385.472L465.076 385.166L464.8 382.472H462.092V385.472ZM425.588 385.472V382.472H422.357L422.596 385.694L425.588 385.472ZM532.915 389.965C532.741 377.881 528.168 369.493 521.306 363.586C514.585 357.801 505.844 354.547 497.546 352.209C493.381 351.036 489.214 350.065 485.418 349.143C481.576 348.21 478.133 347.331 475.224 346.32C472.281 345.297 470.162 344.228 468.811 343.051C467.57 341.97 467.036 340.865 467.036 339.464H461.036C461.036 342.869 462.54 345.544 464.869 347.574C467.088 349.508 470.07 350.881 473.253 351.987C476.47 353.106 480.176 354.044 484.002 354.973C487.873 355.914 491.89 356.849 495.919 357.985C504.011 360.264 511.699 363.234 517.392 368.134C522.942 372.912 526.766 379.671 526.916 390.051L532.915 389.965ZM467.036 339.464C467.036 337.481 467.783 336.094 469.216 335.088C470.789 333.983 473.444 333.176 477.428 333.176V327.176C472.772 327.176 468.73 328.097 465.767 330.178C462.664 332.358 461.036 335.615 461.036 339.464H467.036ZM477.428 333.176C482.099 333.176 485.552 334.389 487.903 336.253C490.228 338.096 491.716 340.763 492.165 344.175L498.114 343.393C497.483 338.597 495.299 334.46 491.631 331.551C487.988 328.663 483.125 327.176 477.428 327.176V333.176ZM495.14 346.784H529.268V340.784H495.14V346.784ZM532.253 343.485C530.999 330.943 525.78 319.933 516.613 312.076C507.455 304.227 494.618 299.744 478.508 299.744V305.744C493.502 305.744 504.856 309.901 512.708 316.632C520.552 323.355 525.161 332.865 526.283 344.083L532.253 343.485ZM478.508 299.744C462.223 299.744 449.242 304.096 440.271 311.407C431.263 318.748 426.476 328.941 426.476 340.112H432.476C432.476 330.763 436.437 322.272 444.061 316.059C451.721 309.816 463.257 305.744 478.508 305.744V299.744ZM426.476 340.112C426.476 352.056 430.962 360.321 437.797 366.111C444.477 371.769 453.22 374.909 461.522 377.162C465.69 378.293 469.87 379.23 473.676 380.126C477.529 381.032 480.987 381.892 483.907 382.893C486.862 383.905 488.991 384.973 490.348 386.155C491.595 387.24 492.14 388.36 492.14 389.792H498.14C498.14 386.364 496.633 383.671 494.288 381.629C492.055 379.685 489.054 378.314 485.852 377.217C482.617 376.108 478.893 375.189 475.05 374.285C471.161 373.37 467.133 372.468 463.094 371.372C454.979 369.17 447.307 366.303 441.675 361.532C436.198 356.893 432.476 350.308 432.476 340.112H426.476ZM492.14 389.792C492.14 391.472 491.408 393.02 489.711 394.245C487.943 395.522 485.004 396.512 480.668 396.512V402.512C485.836 402.512 490.133 401.342 493.224 399.109C496.388 396.824 498.14 393.512 498.14 389.792H492.14ZM480.668 396.512C471.549 396.512 465.736 391.604 465.076 385.166L459.107 385.778C460.175 396.188 469.483 402.512 480.668 402.512V396.512ZM462.092 382.472H425.588V388.472H462.092V382.472ZM422.596 385.694C424.476 411.072 447.882 429.728 481.1 429.728V423.728C449.949 423.728 430.156 406.528 428.58 385.25L422.596 385.694ZM481.1 429.728C496.717 429.728 509.62 425.657 518.691 418.592C527.812 411.488 532.916 401.451 532.916 390.008H526.916C526.916 399.517 522.732 407.84 515.004 413.858C507.228 419.915 495.723 423.728 481.1 423.728V429.728ZM696.999 273.368V270.368H693.999V273.368H696.999ZM696.999 367.328L694.492 368.976L699.999 377.352V367.328H696.999ZM635.223 273.368L637.729 271.72L636.84 270.368H635.223V273.368ZM598.287 273.368V270.368H595.287V273.368H598.287ZM598.287 425H595.287V428H598.287V425ZM635.223 425V428H638.223V425H635.223ZM635.223 331.472L637.726 329.819L632.223 321.487V331.472H635.223ZM696.999 425L694.495 426.653L695.385 428H696.999V425ZM733.935 425V428H736.935V425H733.935ZM733.935 273.368H736.935V270.368H733.935V273.368ZM693.999 273.368V367.328H699.999V273.368H693.999ZM699.505 365.68L637.729 271.72L632.716 275.016L694.492 368.976L699.505 365.68ZM635.223 270.368H598.287V276.368H635.223V270.368ZM595.287 273.368V425H601.287V273.368H595.287ZM598.287 428H635.223V422H598.287V428ZM638.223 425V331.472H632.223V425H638.223ZM632.719 333.125L694.495 426.653L699.502 423.347L637.726 329.819L632.719 333.125ZM696.999 428H733.935V422H696.999V428ZM736.935 425V273.368H730.935V425H736.935ZM733.935 270.368H696.999V276.368H733.935V270.368ZM843.652 407.936H846.652V397.583L841.117 406.332L843.652 407.936ZM843.652 425H840.652V428H843.652V425ZM880.588 425V428H883.588V425H880.588ZM880.588 304.472H883.588V301.472H880.588V304.472ZM843.652 304.472V301.472H840.652V304.472H843.652ZM843.652 321.536L841.094 323.102L846.652 332.181V321.536H843.652ZM750.364 364.52C750.364 403.838 774.918 429.728 806.284 429.728V423.728C778.899 423.728 756.364 401.234 756.364 364.52H750.364ZM806.284 429.728C825.199 429.728 838.92 421.028 846.188 409.54L841.117 406.332C834.993 416.012 823.226 423.728 806.284 423.728V429.728ZM840.652 407.936V425H846.652V407.936H840.652ZM843.652 428H880.588V422H843.652V428ZM883.588 425V304.472H877.588V425H883.588ZM880.588 301.472H843.652V307.472H880.588V301.472ZM840.652 304.472V321.536H846.652V304.472H840.652ZM846.211 319.97C839.151 308.438 825.404 299.744 806.5 299.744V305.744C823.453 305.744 835.194 313.466 841.094 323.102L846.211 319.97ZM806.5 299.744C774.952 299.744 750.364 325.164 750.364 364.52H756.364C756.364 327.844 778.865 305.744 806.5 305.744V299.744ZM840.652 364.736C840.652 373.69 837.798 380.362 833.574 384.775C829.342 389.196 823.554 391.544 817.3 391.544V397.544C825.087 397.544 832.475 394.6 837.909 388.923C843.351 383.238 846.652 375.006 846.652 364.736H840.652ZM817.3 391.544C805.27 391.544 793.948 382.227 793.948 364.52H787.948C787.948 385.261 801.683 397.544 817.3 397.544V391.544ZM793.948 364.52C793.948 355.582 796.846 348.969 801.091 344.607C805.35 340.23 811.145 337.928 817.3 337.928V331.928C809.632 331.928 802.251 334.81 796.79 340.423C791.315 346.051 787.948 354.234 787.948 364.52H793.948ZM817.3 337.928C823.554 337.928 829.342 340.276 833.574 344.697C837.798 349.11 840.652 355.782 840.652 364.736H846.652C846.652 354.466 843.351 346.234 837.909 340.549C832.475 334.872 825.087 331.928 817.3 331.928V337.928ZM974.486 425V428H977.486V425H974.486ZM974.486 393.68H977.486V390.68H974.486V393.68ZM950.078 335.144V332.144H947.078V335.144H950.078ZM974.27 335.144V338.144H977.27V335.144H974.27ZM974.27 304.472H977.27V301.472H974.27V304.472ZM950.078 304.472H947.078V307.472H950.078V304.472ZM950.078 275.096H953.078V272.096H950.078V275.096ZM913.142 275.096V272.096H910.142V275.096H913.142ZM913.142 304.472V307.472H916.142V304.472H913.142ZM898.454 304.472V301.472H895.454V304.472H898.454ZM898.454 335.144H895.454V338.144H898.454V335.144ZM913.142 335.144H916.142V332.144H913.142V335.144ZM910.142 383.096C910.142 399.31 914.687 410.744 923.048 418.052C931.329 425.291 942.816 428 955.694 428V422C943.516 422 933.727 419.417 926.996 413.534C920.345 407.72 916.142 398.202 916.142 383.096H910.142ZM955.694 428H974.486V422H955.694V428ZM977.486 425V393.68H971.486V425H977.486ZM974.486 390.68H961.31V396.68H974.486V390.68ZM961.31 390.68C957.45 390.68 955.594 389.944 954.652 389.074C953.774 388.262 953.078 386.754 953.078 383.528H947.078C947.078 387.43 947.894 390.998 950.58 393.48C953.202 395.904 956.962 396.68 961.31 396.68V390.68ZM953.078 383.528V335.144H947.078V383.528H953.078ZM950.078 338.144H974.27V332.144H950.078V338.144ZM977.27 335.144V304.472H971.27V335.144H977.27ZM974.27 301.472H950.078V307.472H974.27V301.472ZM953.078 304.472V275.096H947.078V304.472H953.078ZM950.078 272.096H913.142V278.096H950.078V272.096ZM910.142 275.096V304.472H916.142V275.096H910.142ZM913.142 301.472H898.454V307.472H913.142V301.472ZM895.454 304.472V335.144H901.454V304.472H895.454ZM898.454 338.144H913.142V332.144H898.454V338.144ZM910.142 335.144V383.096H916.142V335.144H910.142ZM1114.08 304.472H1117.08V301.472H1114.08V304.472ZM1077.14 304.472V301.472H1074.14V304.472H1077.14ZM1030.7 304.472H1033.7V301.472H1030.7V304.472ZM993.98 304.472V301.472H990.98V304.472H993.98ZM1077.14 408.584H1080.14V399.159L1074.69 406.85L1077.14 408.584ZM1077.14 425H1074.14V428H1077.14V425ZM1114.08 425V428H1117.08V425H1114.08ZM1114.08 301.472H1077.14V307.472H1114.08V301.472ZM1074.14 304.472V369.92H1080.14V304.472H1074.14ZM1074.14 369.92C1074.14 377.59 1072.03 383.149 1068.63 386.768C1065.26 390.365 1060.29 392.408 1053.81 392.408V398.408C1061.59 398.408 1068.28 395.915 1073.01 390.872C1077.72 385.851 1080.14 378.666 1080.14 369.92H1074.14ZM1053.81 392.408C1047.57 392.408 1042.65 390.379 1039.26 386.768C1035.86 383.138 1033.7 377.571 1033.7 369.92H1027.7C1027.7 378.685 1030.19 385.862 1034.88 390.872C1039.6 395.901 1046.23 398.408 1053.81 398.408V392.408ZM1033.7 369.92V304.472H1027.7V369.92H1033.7ZM1030.7 301.472H993.98V307.472H1030.7V301.472ZM990.98 304.472V374.888H996.98V304.472H990.98ZM990.98 374.888C990.98 391.558 995.854 405.198 1004.66 414.7C1013.48 424.223 1025.99 429.296 1040.64 429.296V423.296C1027.42 423.296 1016.6 418.757 1009.06 410.622C1001.5 402.466 996.98 390.402 996.98 374.888H990.98ZM1040.64 429.296C1057.77 429.296 1071.66 421.511 1079.59 410.318L1074.69 406.85C1067.93 416.393 1055.9 423.296 1040.64 423.296V429.296ZM1074.14 408.584V425H1080.14V408.584H1074.14ZM1077.14 428H1114.08V422H1077.14V428ZM1117.08 425V304.472H1111.08V425H1117.08ZM1215.34 342.272V345.272H1218.34V342.272H1215.34ZM1215.34 303.176H1218.34V300.176H1215.34V303.176ZM1177.54 324.56H1174.54V334.539L1180.05 326.214L1177.54 324.56ZM1177.54 304.472H1180.54V301.472H1177.54V304.472ZM1140.61 304.472V301.472H1137.61V304.472H1140.61ZM1140.61 425H1137.61V428H1140.61V425ZM1177.54 425V428H1180.54V425H1177.54ZM1180.54 369.056C1180.54 359.125 1182.97 353.455 1186.77 350.153C1190.67 346.769 1196.67 345.272 1205.19 345.272V339.272C1196.22 339.272 1188.39 340.799 1182.84 345.623C1177.19 350.529 1174.54 358.251 1174.54 369.056H1180.54ZM1205.19 345.272H1215.34V339.272H1205.19V345.272ZM1218.34 342.272V303.176H1212.34V342.272H1218.34ZM1215.34 300.176C1197.97 300.176 1183.92 309.474 1175.04 322.906L1180.05 326.214C1188.02 314.158 1200.32 306.176 1215.34 306.176V300.176ZM1180.54 324.56V304.472H1174.54V324.56H1180.54ZM1177.54 301.472H1140.61V307.472H1177.54V301.472ZM1137.61 304.472V425H1143.61V304.472H1137.61ZM1140.61 428H1177.54V422H1140.61V428ZM1180.54 425V369.056H1174.54V425H1180.54ZM1315.94 407.936H1318.94V397.583L1313.41 406.332L1315.94 407.936ZM1315.94 425H1312.94V428H1315.94V425ZM1352.88 425V428H1355.88V425H1352.88ZM1352.88 304.472H1355.88V301.472H1352.88V304.472ZM1315.94 304.472V301.472H1312.94V304.472H1315.94ZM1315.94 321.536L1313.38 323.102L1318.94 332.181V321.536H1315.94ZM1222.65 364.52C1222.65 403.838 1247.21 429.728 1278.57 429.728V423.728C1251.19 423.728 1228.65 401.234 1228.65 364.52H1222.65ZM1278.57 429.728C1297.49 429.728 1311.21 421.028 1318.48 409.54L1313.41 406.332C1307.28 416.012 1295.52 423.728 1278.57 423.728V429.728ZM1312.94 407.936V425H1318.94V407.936H1312.94ZM1315.94 428H1352.88V422H1315.94V428ZM1355.88 425V304.472H1349.88V425H1355.88ZM1352.88 301.472H1315.94V307.472H1352.88V301.472ZM1312.94 304.472V321.536H1318.94V304.472H1312.94ZM1318.5 319.97C1311.44 308.438 1297.69 299.744 1278.79 299.744V305.744C1295.74 305.744 1307.48 313.466 1313.38 323.102L1318.5 319.97ZM1278.79 299.744C1247.24 299.744 1222.65 325.164 1222.65 364.52H1228.65C1228.65 327.844 1251.15 305.744 1278.79 305.744V299.744ZM1312.94 364.736C1312.94 373.69 1310.09 380.362 1305.86 384.775C1301.63 389.196 1295.84 391.544 1289.59 391.544V397.544C1297.38 397.544 1304.76 394.6 1310.2 388.923C1315.64 383.238 1318.94 375.006 1318.94 364.736H1312.94ZM1289.59 391.544C1277.56 391.544 1266.24 382.227 1266.24 364.52H1260.24C1260.24 385.261 1273.97 397.544 1289.59 397.544V391.544ZM1266.24 364.52C1266.24 355.582 1269.14 348.969 1273.38 344.607C1277.64 340.23 1283.43 337.928 1289.59 337.928V331.928C1281.92 331.928 1274.54 334.81 1269.08 340.423C1263.6 346.051 1260.24 354.234 1260.24 364.52H1266.24ZM1289.59 337.928C1295.84 337.928 1301.63 340.276 1305.86 344.697C1310.09 349.11 1312.94 355.782 1312.94 364.736H1318.94C1318.94 354.466 1315.64 346.234 1310.2 340.549C1304.76 334.872 1297.38 331.928 1289.59 331.928V337.928ZM1379.6 425H1376.6V428H1379.6V425ZM1416.54 425V428H1419.54V425H1416.54ZM1416.54 265.16H1419.54V262.16H1416.54V265.16ZM1379.6 265.16V262.16H1376.6V265.16H1379.6ZM1379.6 428H1416.54V422H1379.6V428ZM1419.54 425V265.16H1413.54V425H1419.54ZM1416.54 262.16H1379.6V268.16H1416.54V262.16ZM1376.6 265.16V425H1382.6V265.16H1376.6Z" fill="url(#paint2_linear)"/>
</g>
</g>
<defs>
<linearGradient id="paint0_linear" x1="0" y1="0" x2="1449.66" y2="330.622" gradientUnits="userSpaceOnUse">
<stop stop-color="#0BA360"/>
<stop offset="1" stop-color="#3CBA92"/>
</linearGradient>
<linearGradient id="paint1_linear" x1="0" y1="0" x2="1449.66" y2="330.622" gradientUnits="userSpaceOnUse">
<stop stop-color="#0BA360"/>
<stop offset="1" stop-color="#3CBA92"/>
</linearGradient>
<linearGradient id="paint2_linear" x1="1582" y1="584.5" x2="-55.5" y2="112.5" gradientUnits="userSpaceOnUse">
<stop stop-color="white"/>
<stop offset="1" stop-color="white" stop-opacity="0"/>
</linearGradient>
</defs>
</svg>
