<svg width="1440" height="373" viewBox="0 0 1440 373" fill="none" xmlns="http://www.w3.org/2000/svg">
<rect width="1440" height="373" fill="url(#paint0_linear)"/>
<mask id="mask0" mask-type="alpha" maskUnits="userSpaceOnUse" x="0" y="0" width="1440" height="373">
<rect width="1440" height="373" fill="url(#paint1_linear)"/>
</mask>
<g mask="url(#mask0)">
<g style="mix-blend-mode:overlay" opacity="0.1">
<circle cx="1246" cy="200" r="572" fill="white"/>
</g>
<g style="mix-blend-mode:overlay" opacity="0.1">
<circle cx="921" cy="200" r="572" fill="white"/>
</g>
<g style="mix-blend-mode:overlay" opacity="0.3">
<path d="M102.191 300.8L102.118 303.799L102.126 303.799L102.191 300.8ZM119.687 316.568L116.694 316.768L116.88 319.568H119.687V316.568ZM159.647 316.568V319.568H162.808L162.643 316.411L159.647 316.568ZM47.5431 315.92L50.543 315.944L50.5431 315.932V315.92H47.5431ZM86.4231 379.64L89.4103 379.363L89.1581 376.64H86.4231V379.64ZM47.1111 379.64V376.64H44.0036L44.1129 379.746L47.1111 379.64ZM164.591 379.856C164.591 366.3 159.535 356.73 151.906 349.743C144.411 342.878 134.557 338.619 125.121 335.261C115.418 331.807 106.495 329.389 99.6523 326.093C92.858 322.82 89.6391 319.377 89.6391 314.624H83.6391C83.6391 323.047 89.7891 328.001 97.0483 331.498C104.259 334.972 114.074 337.698 123.109 340.913C132.411 344.224 141.295 348.16 147.854 354.167C154.279 360.052 158.591 368.032 158.591 379.856H164.591ZM89.6391 314.624C89.6391 310.633 91.0107 308.025 93.0035 306.381C95.0729 304.673 98.182 303.703 102.118 303.799L102.264 297.801C97.3441 297.681 92.6773 298.871 89.1846 301.753C85.6155 304.699 83.6391 309.111 83.6391 314.624H89.6391ZM102.126 303.799C106.527 303.895 110.013 305.224 112.434 307.367C114.83 309.487 116.416 312.608 116.694 316.768L122.68 316.368C122.31 310.808 120.116 306.153 116.41 302.873C112.729 299.616 107.791 297.921 102.256 297.801L102.126 303.799ZM119.687 319.568H159.647V313.568H119.687V319.568ZM162.643 316.411C161.845 301.138 155.533 288.966 144.916 280.67C134.366 272.426 119.829 268.208 102.839 268.208V274.208C118.897 274.208 132.008 278.198 141.222 285.398C150.369 292.546 155.937 303.054 156.651 316.725L162.643 316.411ZM102.839 268.208C86.4993 268.208 71.9715 272.317 61.454 280.414C50.8498 288.578 44.5431 300.64 44.5431 315.92H50.5431C50.5431 302.472 56.0083 292.178 65.1141 285.168C74.3066 278.091 87.4269 274.208 102.839 274.208V268.208ZM44.5432 315.896C44.4286 330.162 49.4172 340.111 57.0914 347.282C64.628 354.324 74.5799 358.518 84.1037 361.77C88.8509 363.391 93.6984 364.842 98.0402 366.242C102.456 367.667 106.439 369.066 109.801 370.662C116.585 373.884 119.927 377.436 119.927 382.664H125.927C125.927 373.852 119.792 368.764 112.374 365.242C108.635 363.467 104.336 361.969 99.8822 360.532C95.3545 359.072 90.7452 357.698 86.0424 356.092C76.6663 352.891 67.7452 349.025 61.1878 342.898C54.7679 336.9 50.4416 328.57 50.543 315.944L44.5432 315.896ZM119.927 382.664C119.927 386.235 118.572 388.914 116.249 390.768C113.85 392.684 110.151 393.92 105.215 393.92V399.92C111.079 399.92 116.236 398.456 119.993 395.458C123.826 392.398 125.927 387.949 125.927 382.664H119.927ZM105.215 393.92C100.564 393.92 96.9022 392.666 94.3129 390.397C91.7426 388.146 89.8955 384.604 89.4103 379.363L83.4358 379.917C84.0306 386.34 86.3955 391.438 90.3592 394.911C94.3039 398.366 99.4985 399.92 105.215 399.92V393.92ZM86.4231 376.64H47.1111V382.64H86.4231V376.64ZM44.1129 379.746C44.6848 395.988 51.7675 408.554 63.0849 416.984C74.3192 425.352 89.5286 429.512 106.295 429.512V423.512C90.4455 423.512 76.603 419.572 66.6692 412.172C56.8186 404.834 50.6173 393.964 50.1092 379.534L44.1129 379.746ZM106.295 429.512C124.607 429.512 139.192 424.033 149.237 414.969C159.292 405.897 164.591 393.41 164.591 379.856H158.591C158.591 391.79 153.954 402.631 145.217 410.515C136.47 418.407 123.408 423.512 106.295 423.512V429.512ZM350.426 425H347.426V428H350.426V425ZM387.146 425V428H390.146V425H387.146ZM297.506 325.64L294.896 327.12L297.376 331.493L300.047 327.234L297.506 325.64ZM221.258 319.592H218.258V328.756L223.677 321.366L221.258 319.592ZM221.258 304.472H224.258V301.472H221.258V304.472ZM184.322 304.472V301.472H181.322V304.472H184.322ZM184.322 425H181.322V428H184.322V425ZM221.258 425V428H224.258V425H221.258ZM267.482 425H264.482V428H267.482V425ZM304.202 425V428H307.202V425H304.202ZM350.426 428H387.146V422H350.426V428ZM390.146 425V354.584H384.146V425H390.146ZM390.146 354.584C390.146 337.792 385.154 324.125 375.962 314.642C366.761 305.15 353.667 300.176 338.114 300.176V306.176C352.368 306.176 363.79 310.706 371.654 318.818C379.525 326.939 384.146 338.976 384.146 354.584H390.146ZM338.114 300.176C319.502 300.176 303.459 310.5 294.964 324.046L300.047 327.234C307.536 315.292 321.733 306.176 338.114 306.176V300.176ZM300.115 324.16C291.314 308.641 275.561 300.176 256.466 300.176V306.176C273.659 306.176 287.282 313.695 294.896 327.12L300.115 324.16ZM256.466 300.176C239.817 300.176 226.574 307.269 218.838 317.818L223.677 321.366C230.197 312.475 241.579 306.176 256.466 306.176V300.176ZM224.258 319.592V304.472H218.258V319.592H224.258ZM221.258 301.472H184.322V307.472H221.258V301.472ZM181.322 304.472V425H187.322V304.472H181.322ZM184.322 428H221.258V422H184.322V428ZM224.258 425V359.552H218.258V425H224.258ZM224.258 359.552C224.258 352.238 226.352 346.964 229.698 343.528C233.037 340.1 237.97 338.144 244.37 338.144V332.144C236.729 332.144 230.107 334.508 225.399 339.342C220.699 344.168 218.258 351.098 218.258 359.552H224.258ZM244.37 338.144C250.769 338.144 255.703 340.1 259.041 343.528C262.387 346.964 264.482 352.238 264.482 359.552H270.482C270.482 351.098 268.04 344.168 263.34 339.342C258.633 334.508 252.01 332.144 244.37 332.144V338.144ZM264.482 359.552V425H270.482V359.552H264.482ZM267.482 428H304.202V422H267.482V428ZM307.202 425V359.552H301.202V425H307.202ZM307.202 359.552C307.202 352.238 309.296 346.964 312.642 343.528C315.981 340.1 320.914 338.144 327.314 338.144V332.144C319.673 332.144 313.051 334.508 308.343 339.342C303.643 344.168 301.202 351.098 301.202 359.552H307.202ZM327.314 338.144C333.713 338.144 338.647 340.1 341.985 343.528C345.331 346.964 347.426 352.238 347.426 359.552H353.426C353.426 351.098 350.984 344.168 346.284 339.342C341.577 334.508 334.954 332.144 327.314 332.144V338.144ZM347.426 359.552V425H353.426V359.552H347.426ZM495.922 407.936H498.922V397.583L493.387 406.332L495.922 407.936ZM495.922 425H492.922V428H495.922V425ZM532.858 425V428H535.858V425H532.858ZM532.858 304.472H535.858V301.472H532.858V304.472ZM495.922 304.472V301.472H492.922V304.472H495.922ZM495.922 321.536L493.363 323.102L498.922 332.181V321.536H495.922ZM402.634 364.52C402.634 403.838 427.187 429.728 458.554 429.728V423.728C431.169 423.728 408.634 401.234 408.634 364.52H402.634ZM458.554 429.728C477.468 429.728 491.189 421.028 498.457 409.54L493.387 406.332C487.263 416.012 475.496 423.728 458.554 423.728V429.728ZM492.922 407.936V425H498.922V407.936H492.922ZM495.922 428H532.858V422H495.922V428ZM535.858 425V304.472H529.858V425H535.858ZM532.858 301.472H495.922V307.472H532.858V301.472ZM492.922 304.472V321.536H498.922V304.472H492.922ZM498.48 319.97C491.421 308.438 477.674 299.744 458.77 299.744V305.744C475.722 305.744 487.463 313.466 493.363 323.102L498.48 319.97ZM458.77 299.744C427.221 299.744 402.634 325.164 402.634 364.52H408.634C408.634 327.844 431.135 305.744 458.77 305.744V299.744ZM492.922 364.736C492.922 373.69 490.068 380.362 485.844 384.775C481.612 389.196 475.824 391.544 469.57 391.544V397.544C477.356 397.544 484.744 394.6 490.178 388.923C495.62 383.238 498.922 375.006 498.922 364.736H492.922ZM469.57 391.544C457.539 391.544 446.218 382.227 446.218 364.52H440.218C440.218 385.261 453.953 397.544 469.57 397.544V391.544ZM446.218 364.52C446.218 355.582 449.116 348.969 453.36 344.607C457.619 340.23 463.414 337.928 469.57 337.928V331.928C461.902 331.928 454.521 334.81 449.06 340.423C443.584 346.051 440.218 354.234 440.218 364.52H446.218ZM469.57 337.928C475.824 337.928 481.612 340.276 485.844 344.697C490.068 349.11 492.922 355.782 492.922 364.736H498.922C498.922 354.466 495.62 346.234 490.178 340.549C484.744 334.872 477.356 331.928 469.57 331.928V337.928ZM634.315 342.272V345.272H637.315V342.272H634.315ZM634.315 303.176H637.315V300.176H634.315V303.176ZM596.516 324.56H593.516V334.539L599.018 326.214L596.516 324.56ZM596.516 304.472H599.516V301.472H596.516V304.472ZM559.58 304.472V301.472H556.58V304.472H559.58ZM559.58 425H556.58V428H559.58V425ZM596.516 425V428H599.516V425H596.516ZM599.516 369.056C599.516 359.125 601.945 353.455 605.746 350.153C609.641 346.769 615.643 345.272 624.164 345.272V339.272C615.188 339.272 607.366 340.799 601.811 345.623C596.162 350.529 593.516 358.251 593.516 369.056H599.516ZM624.164 345.272H634.315V339.272H624.164V345.272ZM637.315 342.272V303.176H631.315V342.272H637.315ZM634.315 300.176C616.938 300.176 602.891 309.474 594.013 322.906L599.018 326.214C606.988 314.158 619.293 306.176 634.315 306.176V300.176ZM599.516 324.56V304.472H593.516V324.56H599.516ZM596.516 301.472H559.58V307.472H596.516V301.472ZM556.58 304.472V425H562.58V304.472H556.58ZM559.58 428H596.516V422H559.58V428ZM599.516 425V369.056H593.516V425H599.516ZM719.146 425V428H722.146V425H719.146ZM719.146 393.68H722.146V390.68H719.146V393.68ZM694.738 335.144V332.144H691.738V335.144H694.738ZM718.93 335.144V338.144H721.93V335.144H718.93ZM718.93 304.472H721.93V301.472H718.93V304.472ZM694.738 304.472H691.738V307.472H694.738V304.472ZM694.738 275.096H697.738V272.096H694.738V275.096ZM657.802 275.096V272.096H654.802V275.096H657.802ZM657.802 304.472V307.472H660.802V304.472H657.802ZM643.114 304.472V301.472H640.114V304.472H643.114ZM643.114 335.144H640.114V338.144H643.114V335.144ZM657.802 335.144H660.802V332.144H657.802V335.144ZM654.802 383.096C654.802 399.31 659.347 410.744 667.708 418.052C675.99 425.291 687.477 428 700.354 428V422C688.176 422 678.387 419.417 671.656 413.534C665.005 407.72 660.802 398.202 660.802 383.096H654.802ZM700.354 428H719.146V422H700.354V428ZM722.146 425V393.68H716.146V425H722.146ZM719.146 390.68H705.97V396.68H719.146V390.68ZM705.97 390.68C702.11 390.68 700.254 389.944 699.312 389.074C698.434 388.262 697.738 386.754 697.738 383.528H691.738C691.738 387.43 692.554 390.998 695.24 393.48C697.862 395.904 701.622 396.68 705.97 396.68V390.68ZM697.738 383.528V335.144H691.738V383.528H697.738ZM694.738 338.144H718.93V332.144H694.738V338.144ZM721.93 335.144V304.472H715.93V335.144H721.93ZM718.93 301.472H694.738V307.472H718.93V301.472ZM697.738 304.472V275.096H691.738V304.472H697.738ZM694.738 272.096H657.802V278.096H694.738V272.096ZM654.802 275.096V304.472H660.802V275.096H654.802ZM657.802 301.472H643.114V307.472H657.802V301.472ZM640.114 304.472V335.144H646.114V304.472H640.114ZM643.114 338.144H657.802V332.144H643.114V338.144ZM654.802 335.144V383.096H660.802V335.144H654.802ZM777.286 302.96H774.286V305.96H777.286V302.96ZM817.462 302.96H820.462V299.96H817.462V302.96ZM817.462 425H814.462V428H817.462V425ZM854.398 425V428H857.398V425H854.398ZM854.398 302.96V299.96H851.398V302.96H854.398ZM894.574 302.96V305.96H897.574V302.96H894.574ZM894.574 273.368H897.574V270.368H894.574V273.368ZM777.286 273.368V270.368H774.286V273.368H777.286ZM777.286 305.96H817.462V299.96H777.286V305.96ZM814.462 302.96V425H820.462V302.96H814.462ZM817.462 428H854.398V422H817.462V428ZM857.398 425V302.96H851.398V425H857.398ZM854.398 305.96H894.574V299.96H854.398V305.96ZM897.574 302.96V273.368H891.574V302.96H897.574ZM894.574 270.368H777.286V276.368H894.574V270.368ZM774.286 273.368V302.96H780.286V273.368H774.286ZM987.847 342.272V345.272H990.847V342.272H987.847ZM987.847 303.176H990.847V300.176H987.847V303.176ZM950.047 324.56H947.047V334.539L952.549 326.214L950.047 324.56ZM950.047 304.472H953.047V301.472H950.047V304.472ZM913.111 304.472V301.472H910.111V304.472H913.111ZM913.111 425H910.111V428H913.111V425ZM950.047 425V428H953.047V425H950.047ZM953.047 369.056C953.047 359.125 955.476 353.455 959.277 350.153C963.172 346.769 969.175 345.272 977.695 345.272V339.272C968.719 339.272 960.897 340.799 955.342 345.623C949.694 350.529 947.047 358.251 947.047 369.056H953.047ZM977.695 345.272H987.847V339.272H977.695V345.272ZM990.847 342.272V303.176H984.847V342.272H990.847ZM987.847 300.176C970.469 300.176 956.423 309.474 947.544 322.906L952.549 326.214C960.519 314.158 972.824 306.176 987.847 306.176V300.176ZM953.047 324.56V304.472H947.047V324.56H953.047ZM950.047 301.472H913.111V307.472H950.047V301.472ZM910.111 304.472V425H916.111V304.472H910.111ZM913.111 428H950.047V422H913.111V428ZM953.047 425V369.056H947.047V425H953.047ZM1124.52 304.472H1127.52V301.472H1124.52V304.472ZM1087.58 304.472V301.472H1084.58V304.472H1087.58ZM1041.14 304.472H1044.14V301.472H1041.14V304.472ZM1004.42 304.472V301.472H1001.42V304.472H1004.42ZM1087.58 408.584H1090.58V399.159L1085.13 406.85L1087.58 408.584ZM1087.58 425H1084.58V428H1087.58V425ZM1124.52 425V428H1127.52V425H1124.52ZM1124.52 301.472H1087.58V307.472H1124.52V301.472ZM1084.58 304.472V369.92H1090.58V304.472H1084.58ZM1084.58 369.92C1084.58 377.59 1082.47 383.149 1079.07 386.768C1075.7 390.365 1070.73 392.408 1064.25 392.408V398.408C1072.03 398.408 1078.72 395.915 1083.45 390.872C1088.16 385.851 1090.58 378.666 1090.58 369.92H1084.58ZM1064.25 392.408C1058.02 392.408 1053.09 390.379 1049.7 386.768C1046.3 383.138 1044.14 377.571 1044.14 369.92H1038.14C1038.14 378.685 1040.63 385.862 1045.32 390.872C1050.04 395.901 1056.67 398.408 1064.25 398.408V392.408ZM1044.14 369.92V304.472H1038.14V369.92H1044.14ZM1041.14 301.472H1004.42V307.472H1041.14V301.472ZM1001.42 304.472V374.888H1007.42V304.472H1001.42ZM1001.42 374.888C1001.42 391.558 1006.3 405.198 1015.1 414.7C1023.92 424.223 1036.43 429.296 1051.08 429.296V423.296C1037.86 423.296 1027.04 418.757 1019.5 410.622C1011.94 402.466 1007.42 390.402 1007.42 374.888H1001.42ZM1051.08 429.296C1068.21 429.296 1082.1 421.511 1090.03 410.318L1085.13 406.85C1078.37 416.393 1066.34 423.296 1051.08 423.296V429.296ZM1084.58 408.584V425H1090.58V408.584H1084.58ZM1087.58 428H1124.52V422H1087.58V428ZM1127.52 425V304.472H1121.52V425H1127.52ZM1262.07 381.368L1265 382.026L1265.82 378.368H1262.07V381.368ZM1222.76 381.368V378.368H1220.66L1219.94 380.337L1222.76 381.368ZM1222.76 348.104L1219.94 349.118L1220.65 351.104H1222.76V348.104ZM1262.07 348.104V351.104H1265.8L1265 347.465L1262.07 348.104ZM1140.7 364.736C1140.7 384.524 1147.2 400.825 1158.54 412.188C1169.87 423.547 1185.79 429.728 1204.18 429.728V423.728C1187.16 423.728 1172.84 418.029 1162.78 407.95C1152.73 397.875 1146.7 383.18 1146.7 364.736H1140.7ZM1204.18 429.728C1219.9 429.728 1233.48 425.175 1243.98 416.848C1254.49 408.52 1261.73 396.554 1265 382.026L1259.15 380.71C1256.15 394.046 1249.57 404.76 1240.26 412.146C1230.94 419.533 1218.71 423.728 1204.18 423.728V429.728ZM1262.07 378.368H1222.76V384.368H1262.07V378.368ZM1219.94 380.337C1218.46 384.4 1216.48 387.3 1213.94 389.201C1211.43 391.084 1208.1 392.192 1203.54 392.192V398.192C1209.12 398.192 1213.79 396.816 1217.54 394.001C1221.27 391.204 1223.82 387.192 1225.58 382.399L1219.94 380.337ZM1203.54 392.192C1197.82 392.192 1193.16 389.984 1189.85 385.671C1186.47 381.263 1184.29 374.375 1184.29 364.736H1178.29C1178.29 375.185 1180.64 383.525 1185.09 389.323C1189.61 395.216 1196.08 398.192 1203.54 398.192V392.192ZM1184.29 364.736C1184.29 355.097 1186.47 348.209 1189.85 343.801C1193.16 339.488 1197.82 337.28 1203.54 337.28V331.28C1196.08 331.28 1189.61 334.256 1185.09 340.149C1180.64 345.947 1178.29 354.287 1178.29 364.736H1184.29ZM1203.54 337.28C1208.05 337.28 1211.44 338.47 1214.01 340.421C1216.59 342.39 1218.57 345.306 1219.94 349.118L1225.58 347.09C1223.93 342.478 1221.37 338.482 1217.64 335.645C1213.88 332.79 1209.17 331.28 1203.54 331.28V337.28ZM1222.76 351.104H1262.07V345.104H1222.76V351.104ZM1265 347.465C1261.74 332.506 1254.49 320.52 1243.97 312.288C1233.45 304.061 1219.86 299.744 1204.18 299.744V305.744C1218.75 305.744 1230.97 309.742 1240.27 317.014C1249.56 324.28 1256.14 334.974 1259.14 348.743L1265 347.465ZM1204.18 299.744C1185.78 299.744 1169.86 305.984 1158.53 317.368C1147.2 328.754 1140.7 345.053 1140.7 364.736H1146.7C1146.7 346.403 1152.73 331.706 1162.79 321.6C1172.84 311.492 1187.16 305.744 1204.18 305.744V299.744ZM1281.83 425H1278.83V428H1281.83V425ZM1318.77 425V428H1321.77V425H1318.77ZM1318.77 374.456L1321.19 372.693L1315.77 365.222V374.456H1318.77ZM1355.49 425L1353.06 426.763L1353.96 428H1355.49V425ZM1401.28 425V428H1407.72L1403.57 423.068L1401.28 425ZM1350.73 364.952L1348.42 363.038L1346.82 364.967L1348.44 366.884L1350.73 364.952ZM1400.85 304.472L1403.16 306.386L1407.23 301.472H1400.85V304.472ZM1355.27 304.472V301.472H1353.76L1352.86 302.68L1355.27 304.472ZM1318.77 353.504H1315.77V362.557L1321.17 355.296L1318.77 353.504ZM1318.77 265.16H1321.77V262.16H1318.77V265.16ZM1281.83 265.16V262.16H1278.83V265.16H1281.83ZM1281.83 428H1318.77V422H1281.83V428ZM1321.77 425V374.456H1315.77V425H1321.77ZM1316.34 376.219L1353.06 426.763L1357.91 423.237L1321.19 372.693L1316.34 376.219ZM1355.49 428H1401.28V422H1355.49V428ZM1403.57 423.068L1353.03 363.02L1348.44 366.884L1398.98 426.932L1403.57 423.068ZM1353.04 366.866L1403.16 306.386L1398.54 302.558L1348.42 363.038L1353.04 366.866ZM1400.85 301.472H1355.27V307.472H1400.85V301.472ZM1352.86 302.68L1316.36 351.712L1321.17 355.296L1357.68 306.264L1352.86 302.68ZM1321.77 353.504V265.16H1315.77V353.504H1321.77ZM1318.77 262.16H1281.83V268.16H1318.77V262.16ZM1278.83 265.16V425H1284.83V265.16H1278.83Z" fill="url(#paint2_linear)"/>
</g>
</g>
<defs>
<linearGradient id="paint0_linear" x1="0" y1="0" x2="1449.66" y2="330.622" gradientUnits="userSpaceOnUse">
<stop stop-color="#09203F"/>
<stop offset="1" stop-color="#537895"/>
</linearGradient>
<linearGradient id="paint1_linear" x1="0" y1="0" x2="1449.66" y2="330.622" gradientUnits="userSpaceOnUse">
<stop stop-color="#0BA360"/>
<stop offset="1" stop-color="#3CBA92"/>
</linearGradient>
<linearGradient id="paint2_linear" x1="1548.01" y1="584.5" x2="-34.3018" y2="146.396" gradientUnits="userSpaceOnUse">
<stop stop-color="white"/>
<stop offset="1" stop-color="white" stop-opacity="0"/>
</linearGradient>
</defs>
</svg>
