<svg width="135" height="155" viewBox="0 0 135 155" fill="none" xmlns="http://www.w3.org/2000/svg">
<g filter="url(#filter0_d)">
<rect x="50" y="40" width="55" height="55" rx="8" fill="white"/>
</g>
<path opacity="0.01" fill-rule="evenodd" clip-rule="evenodd" d="M57 47H98.1547V88.1547H57V47Z" fill="url(#paint0_linear)"/>
<path d="M68.579 67.3057C67.9554 66.593 66.8721 66.5208 66.1593 67.1444C65.4466 67.7681 65.3744 68.8514 65.998 69.5641L71.9998 76.4232C72.6658 77.1844 73.8425 77.2068 74.5369 76.4715L89.1126 61.0384C89.7628 60.3499 89.7318 59.2646 89.0433 58.6144C88.3548 57.9641 87.2695 57.9951 86.6192 58.6836L73.3387 72.7454L68.579 67.3057Z" fill="url(#paint1_linear)"/>
<defs>
<filter id="filter0_d" x="0" y="0" width="155" height="155" filterUnits="userSpaceOnUse" color-interpolation-filters="sRGB">
<feFlood flood-opacity="0" result="BackgroundImageFix"/>
<feColorMatrix in="SourceAlpha" type="matrix" values="0 0 0 0 0 0 0 0 0 0 0 0 0 0 0 0 0 0 127 0"/>
<feOffset dy="10"/>
<feGaussianBlur stdDeviation="25"/>
<feColorMatrix type="matrix" values="0 0 0 0 0 0 0 0 0 0 0 0 0 0 0 0 0 0 0.25 0"/>
<feBlend mode="normal" in2="BackgroundImageFix" result="effect1_dropShadow"/>
<feBlend mode="normal" in="SourceGraphic" in2="effect1_dropShadow" result="shape"/>
</filter>
<linearGradient id="paint0_linear" x1="57" y1="47" x2="100.434" y2="49.5659" gradientUnits="userSpaceOnUse">
<stop stop-color="#0BA360"/>
<stop offset="1" stop-color="#3CBA92"/>
</linearGradient>
<linearGradient id="paint1_linear" x1="89.5807" y1="58.1462" x2="88.6554" y2="78.0802" gradientUnits="userSpaceOnUse">
<stop stop-color="#09203F"/>
<stop offset="1" stop-color="#537895"/>
</linearGradient>
</defs>
</svg>
