<svg width="29" height="27" viewBox="0 0 29 27" fill="none" xmlns="http://www.w3.org/2000/svg">
<path fill-rule="evenodd" clip-rule="evenodd" d="M0.28125 7.66671V4.75004C0.28125 4.14598 0.770938 3.65629 1.375 3.65629H4.78367L4.65903 1.9113C4.6138 1.27816 5.11525 0.739624 5.75 0.739624H23.25C23.8847 0.739624 24.3862 1.27816 24.341 1.9113L24.2163 3.65622H27.625C28.2291 3.65622 28.7187 4.14591 28.7187 4.74997V7.66664C28.7187 11.0279 26.3124 13.8696 23.0739 14.4752C21.8951 17.6395 19.025 19.9526 15.5938 20.3622V24.7863L15.5936 24.8019H18.875C19.4791 24.8019 19.9688 25.2916 19.9688 25.8957C19.9688 26.4997 19.4791 26.9894 18.875 26.9894H10.125C9.52094 26.9894 9.03125 26.4997 9.03125 25.8957C9.03125 25.2916 9.52094 24.8019 10.125 24.8019H13.4064L13.4062 24.7863V20.3622C9.97504 19.9526 7.10497 17.6395 5.92613 14.4752C2.68833 13.8698 0.28125 11.0287 0.28125 7.66671ZM23.6166 12.0429C25.3374 11.3251 26.5312 9.62439 26.5312 7.66664V5.84372H24.0601L23.6253 11.9304C23.6226 11.9679 23.6197 12.0054 23.6166 12.0429ZM21.4433 11.7745C21.1836 15.4111 18.1623 18.23 14.5186 18.2396L14.5 18.2394L14.4814 18.2396C10.8377 18.23 7.81634 15.4111 7.55659 11.7745L6.92463 2.92711H22.0753L21.4433 11.7745ZM2.46875 7.66664V5.84372H4.89408L5.31865 12.0153C3.63299 11.2823 2.46875 9.60006 2.46875 7.66664Z" fill="#2B374A"/>
</svg>
